<?xml version="1.0" encoding="UTF-8" standalone="no"?><!DOCTYPE svg PUBLIC "-//W3C//DTD SVG 1.1//EN" "http://www.w3.org/Graphics/SVG/1.1/DTD/svg11.dtd"><svg width="100%" height="100%" viewBox="0 0 144 61" version="1.1" xmlns="http://www.w3.org/2000/svg" xmlns:xlink="http://www.w3.org/1999/xlink" xml:space="preserve" xmlns:serif="http://www.serif.com/" style="fill-rule:evenodd;clip-rule:evenodd;stroke-linejoin:round;stroke-miterlimit:2;"><g><path d="M57.511,0.583c-2.863,0 -5.17,2.304 -5.17,5.169l0,27.442c0,2.864 2.307,5.169 5.17,5.169l27.509,0c2.864,0 5.169,-2.305 5.169,-5.169l0,-27.442c0,-2.865 -2.305,-5.169 -5.169,-5.169l-27.509,0Zm20.16,5.148c0.087,-0.004 0.173,0 0.258,0c0.23,0.008 0.459,0.032 0.686,0.077c1.091,0.213 2.072,0.896 2.7,1.814c0.436,0.636 0.708,1.383 0.786,2.149l-0.015,13.488l7.769,0l-4.884,6.57l-2.885,0l0,3.299l-7.936,0l0,-3.272l-16.575,0.188c-0.834,0.006 -1.668,-0.14 -2.45,-0.428c-0.792,-0.293 -1.555,-0.756 -2.01,-1.468c-0.428,-0.671 -0.542,-1.508 -0.438,-2.297c0.153,-1.169 0.77,-2.272 1.688,-3.011l18.856,-15.326c0.791,-0.642 1.7,-1.138 2.668,-1.456c0.574,-0.188 1.179,-0.315 1.782,-0.327m4.288,0.098l7.739,0l-5.116,6.426l-0.863,0c-0.034,-1.308 0.058,-2.639 -0.249,-3.906c-0.118,-0.487 -0.352,-0.942 -0.603,-1.378c-0.184,-0.322 -0.412,-0.619 -0.655,-0.898c-0.078,-0.088 -0.253,-0.244 -0.253,-0.244m7.74,8.973l-5.058,6.45l-0.943,0l0,-6.45c2,0 4.001,-0.001 6.001,-0.001l0,0.001Zm-18.484,0.518c-2.874,0.001 -5.205,2.331 -5.205,5.206c0,2.874 2.331,5.204 5.205,5.204c2.874,0 5.204,-2.33 5.204,-5.204c0,-2.875 -2.33,-5.205 -5.204,-5.206m33.877,34.332c-0.292,0.007 -0.582,0.079 -0.84,0.215c-0.309,0.16 -0.572,0.406 -0.753,0.704c-0.182,0.297 -0.278,0.645 -0.278,0.993l-0.014,8.36l2.933,0l0,-5.676l4.667,4.408c0.507,0.48 1.022,0.978 1.664,1.252c0.38,0.164 0.798,0.241 1.213,0.218c0.276,-0.015 0.55,-0.075 0.799,-0.197c0.249,-0.12 0.469,-0.306 0.616,-0.539c0.074,-0.123 0.129,-0.257 0.158,-0.398c0.029,-0.142 0.032,-0.285 0.03,-0.43l-0.065,-8.546l-2.793,-0.149l-0.084,5.719l-5.922,-5.432c-0.288,-0.263 -0.655,-0.435 -1.04,-0.486c-0.097,-0.013 -0.195,-0.018 -0.291,-0.016m-19.599,10.272l3.382,0l0,-10.05l-3.382,0l0,10.05Zm-75.994,-10.04c-0.256,-0.008 -0.512,0.041 -0.758,0.121c-0.358,0.116 -0.695,0.299 -0.99,0.537l-6.999,5.648c-0.341,0.272 -0.571,0.678 -0.627,1.109c-0.038,0.292 0.004,0.6 0.163,0.848c0.167,0.263 0.452,0.433 0.747,0.54c0.29,0.106 0.6,0.161 0.907,0.159l6.154,-0.069l0,1.205l2.946,0l0,-1.216l1.072,0l1.813,-2.422l-2.884,0l0.005,-4.971c-0.03,-0.284 -0.132,-0.558 -0.292,-0.793c-0.235,-0.339 -0.598,-0.59 -1.003,-0.668c-0.083,-0.017 -0.17,-0.025 -0.254,-0.028m38.372,0.012c-1.605,0 -2.887,0.02 -2.887,0.02l-2.141,2.777l8.454,-0.043c0,0 0.786,-0.034 1.112,0.152c0.276,0.156 0.523,0.433 0.594,0.743c0.068,0.299 -0.011,0.655 -0.2,0.895c-0.151,0.188 -0.42,0.251 -0.653,0.31c-0.468,0.118 -0.814,0.065 -1.446,0.07c-2.384,0.022 -7.744,-0.037 -7.744,-0.037l-0.014,5.141l3.216,0l0,-2.365l5.593,0c0,0 1.696,-0.09 2.445,-0.444c0.667,-0.315 1.334,-0.781 1.688,-1.429c0.472,-0.865 0.647,-1.978 0.384,-2.927c-0.244,-0.884 -0.955,-1.63 -1.705,-2.157c-0.501,-0.353 -1.394,-0.53 -1.74,-0.586c-0.889,-0.143 -2.078,-0.098 -3.278,-0.112c-0.572,-0.006 -1.142,-0.008 -1.678,-0.008m27.561,0c-1.606,0 -2.887,0.02 -2.887,0.02l-2.142,2.777l8.453,-0.043c0,0 0.787,-0.034 1.113,0.152c0.276,0.156 0.523,0.433 0.594,0.743c0.068,0.299 -0.011,0.655 -0.201,0.895c-0.151,0.188 -0.419,0.251 -0.652,0.31c-0.467,0.118 -0.815,0.065 -1.448,0.07c-2.382,0.022 -7.742,-0.037 -7.742,-0.037l-0.014,5.141l3.215,0l0,-2.365l4.574,0l2.042,2.374l4.381,0l-3.14,-3.14c0.704,-0.325 1.555,-0.57 1.964,-1.225c0.498,-0.799 0.553,-1.905 0.29,-2.809c-0.256,-0.88 -0.955,-1.63 -1.705,-2.157c-0.502,-0.353 -1.394,-0.53 -1.74,-0.586c-0.889,-0.143 -2.078,-0.098 -3.279,-0.112c-0.571,-0.006 -1.142,-0.008 -1.676,-0.008m-60.63,0.025c0,3.373 0,10.098 0,10.098l9.838,0l2.011,-2.767l-8.562,0l0,-1.064l6.054,0l1.893,-2.46l-7.947,0l0,-0.994l6.433,0l1.981,-2.733l-11.701,-0.08Zm42.854,0l0,10.098l9.839,0l2.009,-2.767l-8.561,0l0,-1.064l6.055,0l1.891,-2.46l-7.946,0l0,-0.994l6.434,0l1.981,-2.733l-11.702,-0.08Zm32.922,0l0,10.098l9.838,0l2.01,-2.767l-8.561,0l0,-1.064l6.053,0l1.893,-2.46l-7.946,0l0,-0.994l6.432,0l1.981,-2.733l-11.7,-0.08Zm40.11,0l0,10.098l9.839,0l2.01,-2.767l-8.561,0l0,-1.064l6.054,0l1.891,-2.46l-7.945,0l0,-0.994l6.433,0l1.981,-2.733l-11.702,-0.08Zm-1.067,0.012l-7.86,0.034c-0.75,0.064 -1.489,0.257 -2.175,0.568c-0.658,0.3 -1.269,0.711 -1.77,1.232c-0.503,0.521 -0.895,1.153 -1.106,1.846c-0.356,1.168 -0.175,2.47 0.402,3.545c0.413,0.77 1.022,1.434 1.755,1.911c0.732,0.478 1.586,0.765 2.459,0.83l6.555,-0.032l1.84,-2.542l-7.826,-0.067c-0.581,-0.059 -1.135,-0.354 -1.505,-0.804c-0.431,-0.521 -0.607,-1.243 -0.47,-1.904c0.086,-0.411 0.287,-0.796 0.575,-1.102c0.287,-0.305 0.659,-0.529 1.066,-0.639c0.4,-0.108 0.822,-0.103 1.236,-0.1c1.661,0.015 3.323,0.015 4.984,0l1.84,-2.776Zm-91.95,0.011l-3.169,3.075l-3.098,-3.052l-4.314,0.024l5.189,5.014l-5.44,4.99l4.021,0l3.287,-3.24l3.264,3.169l4.73,0l-5.629,-5.061l5.346,-4.919l-4.187,0Zm-29.627,3.683l-0.009,2.688l-3.036,-0.009l3.045,-2.679Z" style="fill:#d31c5d;fill-rule:nonzero;"/></g></svg>