<?xml version="1.0" encoding="UTF-8" standalone="no"?><!DOCTYPE svg PUBLIC "-//W3C//DTD SVG 1.1//EN" "http://www.w3.org/Graphics/SVG/1.1/DTD/svg11.dtd"><svg width="100%" height="100%" viewBox="0 0 144 42" version="1.1" xmlns="http://www.w3.org/2000/svg" xmlns:xlink="http://www.w3.org/1999/xlink" xml:space="preserve" xmlns:serif="http://www.serif.com/" style="fill-rule:evenodd;clip-rule:evenodd;stroke-linejoin:round;stroke-miterlimit:2;"><g><path d="M53.71,12.619l6.223,0l0,-5.908l-6.22,0l0,5.908l-0.003,0Zm-0.008,2.503l0.011,21.535l6.241,0l-0.01,-21.535l-6.242,0Zm39.883,6.333c0.377,-1.429 1.07,-2.54 2.08,-3.326c1.011,-0.791 2.236,-1.191 3.682,-1.191c1.476,0 2.723,0.391 3.755,1.17c1.025,0.771 1.771,1.891 2.22,3.347l-11.737,0Zm18.288,2.501c0,-2.291 -0.521,-4.387 -1.556,-6.284c-1.036,-1.896 -2.575,-3.469 -4.448,-4.546c-1.926,-1.128 -4.102,-1.697 -6.522,-1.697c-2.369,0 -4.508,0.553 -6.434,1.646c-1.892,1.066 -3.452,2.633 -4.508,4.532c-1.091,1.934 -1.629,4.073 -1.629,6.438c0,2.348 0.547,4.481 1.638,6.414c1.069,1.897 2.631,3.468 4.522,4.546c1.926,1.099 4.057,1.652 6.411,1.652c2.804,0 5.283,-0.77 7.444,-2.299c2.102,-1.49 3.601,-3.491 4.486,-6.001l-6.942,0c-0.481,0.769 -1.155,1.396 -1.956,1.819c-0.932,0.496 -1.975,0.749 -3.032,0.735c-1.594,0 -2.914,-0.435 -3.954,-1.31c-1.048,-0.865 -1.705,-2.116 -1.985,-3.745l18.333,0c0.088,-0.619 0.133,-1.251 0.133,-1.9l-0.001,0Zm22.211,4.809c-1.209,1.216 -2.759,1.82 -4.639,1.82c-1.89,0 -3.437,-0.604 -4.649,-1.82c-1.21,-1.221 -1.814,-2.793 -1.814,-4.72c0,-1.929 0.604,-3.5 1.814,-4.722c1.212,-1.217 2.759,-1.826 4.649,-1.826c1.88,0 3.43,0.611 4.639,1.826c1.211,1.222 1.816,2.793 1.816,4.722c0,1.927 -0.605,3.499 -1.816,4.721m6.745,-11.182c-1.124,-1.913 -2.753,-3.479 -4.709,-4.525c-1.997,-1.083 -4.227,-1.63 -6.677,-1.63c-2.471,0 -4.705,0.547 -6.704,1.63c-1.952,1.046 -3.577,2.609 -4.7,4.518c-1.129,1.921 -1.698,4.073 -1.698,6.468c0,2.364 0.569,4.501 1.698,6.437c1.119,1.915 2.747,3.483 4.7,4.532c1.999,1.093 4.233,1.643 6.706,1.643c2.448,0 4.678,-0.553 6.677,-1.643c1.955,-1.049 3.583,-2.617 4.705,-4.532c1.144,-1.936 1.711,-4.073 1.711,-6.437c0,-2.38 -0.567,-4.526 -1.709,-6.461m-60.844,13.598c-1.144,0 -2.016,-0.306 -2.628,-0.91c-0.611,-0.602 -0.922,-1.456 -0.922,-2.571l0,-10.105l6.264,0l0,-4.944l-6.264,0l0,-5.941l-6.237,0l0,5.941l-4.175,0l0,4.942l4.17,0l0,10.932c0,2.524 0.738,4.513 2.208,5.956c1.461,1.448 3.465,2.175 5.995,2.175l4.43,0l0,-5.473l-2.841,0l0,-0.002Z" style="fill:#f26721;"/><path d="M6.679,19.241c-0.16,0.81 -0.239,1.635 -0.239,2.481c0,7.286 6.041,13.214 13.456,13.214c7.425,0 13.462,-5.95 13.462,-13.254c0.004,-2.444 -0.68,-4.839 -1.972,-6.912c-3.022,2.121 -6.575,3.359 -10.26,3.577c-0.44,0.042 -0.85,0.042 -1.23,0.042c-5.209,0 -10.165,-2.107 -13.961,-5.934l-2.158,-2.178l2.15,-2.183c3.762,-3.805 8.726,-5.899 13.97,-5.899c0.252,0 0.504,0 0.759,0.022c5.077,0.164 9.896,2.279 13.455,5.905c3.595,3.659 5.574,8.471 5.574,13.56c0,10.75 -8.879,19.492 -19.789,19.492c-10.911,0 -19.783,-8.727 -19.783,-19.452c0,-2.565 0.52,-5.114 1.513,-7.465l5.053,4.984Zm6.529,-8.966c2.21,1.357 4.781,2.004 7.37,1.855l0.131,-0.008c2.139,-0.121 4.22,-0.75 6.071,-1.832c-1.947,-1.141 -4.149,-1.774 -6.404,-1.843l-0.152,-0.011c-0.111,-0.009 -0.218,-0.006 -0.329,-0.006c-2.406,0 -4.669,0.631 -6.687,1.845" style="fill:#f26721;"/><path d="M38.38,0.038l-4.235,4.177l4.399,4.339l4.236,-4.176l-4.4,-4.34Z" style="fill:#f26721;"/></g></svg>