<?xml version="1.0" encoding="UTF-8" standalone="no"?><!DOCTYPE svg PUBLIC "-//W3C//DTD SVG 1.1//EN" "http://www.w3.org/Graphics/SVG/1.1/DTD/svg11.dtd"><svg width="100%" height="100%" viewBox="0 0 144 44" version="1.1" xmlns="http://www.w3.org/2000/svg" xmlns:xlink="http://www.w3.org/1999/xlink" xml:space="preserve" xmlns:serif="http://www.serif.com/" style="fill-rule:evenodd;clip-rule:evenodd;stroke-linejoin:round;stroke-miterlimit:2;"><g><path d="M0.675,29.781c0.15,0.005 0.143,-0.133 0.18,-0.215c0.436,-0.984 0.853,-1.979 1.304,-2.954c0.404,-0.875 0.754,-1.77 1.164,-2.64c0.368,-0.777 0.668,-1.582 1.041,-2.355c0.393,-0.817 0.705,-1.667 1.096,-2.482c0.363,-0.755 0.653,-1.539 1.014,-2.292c0.402,-0.838 0.725,-1.709 1.125,-2.545c0.357,-0.744 0.645,-1.518 1.001,-2.26c0.406,-0.849 0.735,-1.729 1.139,-2.577c0.351,-0.734 0.635,-1.496 0.986,-2.23c0.412,-0.858 0.746,-1.749 1.155,-2.607c0.319,-0.673 0.593,-1.364 0.901,-2.041c0.279,-0.615 0.559,-1.23 0.821,-1.853c0.068,-0.161 0.159,-0.193 0.314,-0.191c0.493,0.008 0.987,0.003 1.481,0.003c1.985,0 3.972,0.005 5.958,-0.005c0.243,-0.002 0.36,0.07 0.456,0.296c0.583,1.369 1.167,2.739 1.785,4.093c0.372,0.814 0.694,1.647 1.081,2.451c0.377,0.786 0.679,1.604 1.055,2.387c0.389,0.806 0.696,1.646 1.083,2.45c0.377,0.786 0.678,1.604 1.055,2.386c0.388,0.805 0.695,1.646 1.082,2.45c0.377,0.785 0.679,1.603 1.057,2.386c0.238,0.494 0.444,1.002 0.671,1.499c0.103,-0.024 0.108,-0.119 0.139,-0.188c0.422,-0.953 0.827,-1.913 1.266,-2.857c0.399,-0.863 0.743,-1.75 1.149,-2.608c0.363,-0.766 0.658,-1.562 1.026,-2.325c0.397,-0.826 0.715,-1.686 1.112,-2.511c0.359,-0.744 0.643,-1.519 0.999,-2.26c0.406,-0.848 0.734,-1.729 1.139,-2.575c0.353,-0.734 0.637,-1.497 0.987,-2.229c0.404,-0.848 0.761,-1.716 1.129,-2.579c0.074,-0.176 0.169,-0.266 0.381,-0.266c2.55,0.007 5.098,0.005 7.648,0.005c0.045,0 0.09,0.009 0.129,0.012c0.059,0.094 0,0.16 -0.031,0.23c-0.507,1.14 -0.998,2.288 -1.53,3.417c-0.337,0.715 -0.626,1.451 -0.97,2.162c-0.409,0.846 -0.749,1.723 -1.157,2.568c-0.368,0.763 -0.669,1.556 -1.042,2.318c-0.392,0.801 -0.709,1.638 -1.099,2.442c-0.362,0.741 -0.652,1.514 -1.012,2.254c-0.397,0.815 -0.72,1.661 -1.113,2.473c-0.375,0.774 -0.679,1.579 -1.057,2.349c-0.387,0.793 -0.697,1.62 -1.085,2.411c-0.384,0.782 -0.683,1.603 -1.06,2.385c-0.383,0.795 -0.69,1.623 -1.071,2.418c-0.263,0.547 -0.5,1.105 -0.734,1.665c-0.068,0.162 -0.157,0.216 -0.332,0.216c-2.526,-0.005 -5.052,-0.006 -7.577,0c-0.181,0.001 -0.258,-0.066 -0.325,-0.222c-0.557,-1.293 -1.103,-2.591 -1.692,-3.871c-0.377,-0.823 -0.704,-1.667 -1.094,-2.483c-0.372,-0.775 -0.67,-1.582 -1.041,-2.355c-0.393,-0.816 -0.706,-1.665 -1.097,-2.481c-0.363,-0.753 -0.653,-1.539 -1.013,-2.293c-0.402,-0.837 -0.726,-1.707 -1.125,-2.544c-0.357,-0.744 -0.649,-1.516 -1.001,-2.26c-0.268,-0.57 -0.522,-1.146 -0.768,-1.726c-0.017,-0.043 -0.037,-0.083 -0.097,-0.104c-0.363,0.759 -0.7,1.529 -1.037,2.301c-0.451,1.04 -0.901,2.081 -1.37,3.112c-0.356,0.782 -0.666,1.584 -1.038,2.357c-0.387,0.805 -0.697,1.645 -1.083,2.45c-0.376,0.787 -0.679,1.604 -1.055,2.387c-0.39,0.805 -0.697,1.646 -1.084,2.451c-0.377,0.786 -0.679,1.603 -1.057,2.387c-0.387,0.804 -0.72,1.634 -1.075,2.453c-0.132,0.305 -0.296,0.455 -0.679,0.449c-2.238,-0.026 -4.477,-0.013 -6.716,-0.014c-0.264,0 -0.528,-0.003 -0.792,-0.006l0,-0.069" style="fill:#2c2c2e;"/><path d="M75.333,29.859l-0.322,0c-2.424,0 -4.845,-0.005 -7.269,0.006c-0.254,0.002 -0.375,-0.067 -0.477,-0.308c-0.586,-1.382 -1.187,-2.757 -1.8,-4.126c-0.182,-0.406 -0.376,-0.808 -0.548,-1.221c-0.052,-0.126 -0.121,-0.184 -0.254,-0.173c-0.069,0.006 -0.138,0.001 -0.205,0.001l-12.266,0c-0.045,0 -0.093,0.003 -0.138,0c-0.167,-0.017 -0.261,0.038 -0.339,0.207c-0.376,0.823 -0.717,1.66 -1.095,2.483c-0.413,0.905 -0.804,1.822 -1.199,2.736c-0.116,0.27 -0.257,0.41 -0.602,0.406c-2.388,-0.022 -4.777,-0.011 -7.165,-0.011l-0.372,0c-0.045,-0.13 0.034,-0.215 0.073,-0.305c0.491,-1.123 0.97,-2.25 1.489,-3.361c0.349,-0.745 0.646,-1.516 1.004,-2.259c0.398,-0.825 0.721,-1.684 1.118,-2.509c0.373,-0.774 0.673,-1.581 1.048,-2.353c0.393,-0.815 0.71,-1.665 1.102,-2.479c0.34,-0.701 0.616,-1.429 0.951,-2.132c0.413,-0.868 0.763,-1.767 1.175,-2.635c0.369,-0.777 0.671,-1.582 1.046,-2.354c0.388,-0.805 0.7,-1.645 1.089,-2.448c0.38,-0.785 0.681,-1.603 1.06,-2.384c0.387,-0.795 0.694,-1.622 1.077,-2.416c0.235,-0.484 0.451,-0.976 0.657,-1.473c0.068,-0.167 0.164,-0.22 0.336,-0.212c0.309,0.011 0.619,0.003 0.929,0.003c2.205,0 4.41,0.004 6.615,-0.006c0.262,-0.003 0.377,0.082 0.476,0.316c0.537,1.264 1.077,2.53 1.65,3.778c0.375,0.811 0.696,1.646 1.082,2.451c0.372,0.775 0.671,1.582 1.042,2.355c0.393,0.818 0.706,1.667 1.097,2.482c0.373,0.775 0.671,1.584 1.043,2.356c0.392,0.817 0.706,1.667 1.097,2.481c0.372,0.776 0.669,1.584 1.041,2.358c0.395,0.815 0.707,1.665 1.098,2.48c0.368,0.765 0.661,1.562 1.028,2.325c0.398,0.826 0.716,1.687 1.111,2.512c0.368,0.765 0.674,1.555 1.026,2.324c0.16,0.353 0.349,0.693 0.491,1.105m-13.412,-12.316c0.012,-0.132 -0.046,-0.208 -0.083,-0.289c-0.286,-0.636 -0.544,-1.284 -0.845,-1.914c-0.385,-0.803 -0.704,-1.637 -1.08,-2.447c-0.515,-1.109 -0.989,-2.237 -1.481,-3.359c-0.03,-0.065 -0.032,-0.152 -0.132,-0.171c-0.164,0.378 -0.333,0.754 -0.51,1.125c-0.381,0.805 -0.707,1.636 -1.081,2.446c-0.617,1.34 -1.188,2.701 -1.777,4.053c-0.076,0.176 -0.146,0.353 -0.229,0.556l7.218,0" style="fill:#2c2c2e;"/><path d="M143.1,11.521l0,18.33c-0.114,0.04 -0.229,0.023 -0.344,0.023c-2.365,0 -4.731,0.002 -7.095,0c-0.399,0 -0.376,0.03 -0.376,-0.369l0,-5.65c0,-0.52 -0.016,-0.426 -0.429,-0.426l-14.88,0l-0.382,0c-0.025,-0.178 0.066,-0.308 0.129,-0.436c0.363,-0.718 0.627,-1.478 0.965,-2.203c0.417,-0.895 0.768,-1.817 1.184,-2.712c0.36,-0.78 0.661,-1.588 1.026,-2.361c0.397,-0.842 0.721,-1.716 1.115,-2.553c0.355,-0.757 0.648,-1.547 1.003,-2.303c0.402,-0.85 0.729,-1.732 1.126,-2.581c0.37,-0.778 0.667,-1.586 1.031,-2.365c0.393,-0.83 0.711,-1.69 1.102,-2.519c0.334,-0.705 0.624,-1.428 0.927,-2.145c0.064,-0.147 0.139,-0.21 0.306,-0.21c2.535,0.007 5.074,0.007 7.612,0.007c0.033,0 0.066,0.011 0.115,0.019c-0.011,0.239 -0.127,0.439 -0.229,0.637c-0.356,0.709 -0.614,1.459 -0.949,2.172c-0.424,0.905 -0.781,1.838 -1.201,2.74c-0.327,0.697 -0.599,1.415 -0.922,2.112c-0.43,0.916 -0.789,1.857 -1.216,2.772c-0.348,0.746 -0.636,1.521 -0.99,2.266c-0.41,0.86 -0.759,1.748 -1.139,2.617c-0.07,0.165 -0.217,0.297 -0.21,0.496c0.104,0.046 0.208,0.026 0.31,0.026c1.412,0.003 2.824,0 4.236,0.003c0.047,0 0.093,-0.006 0.137,0c0.176,0.022 0.214,-0.071 0.214,-0.225c-0.003,-0.539 0.006,-1.08 0.006,-1.618c-0.004,-1.054 -0.006,-2.113 -0.009,-3.168c0,-0.024 0,-0.046 0.003,-0.067c0.012,-0.297 0.012,-0.299 0.313,-0.299l7.268,0c0.08,0 0.164,-0.007 0.243,-0.01" style="fill:#269dd8;fill-rule:nonzero;"/><path d="M117.628,8.687c0.219,0.842 0.318,1.689 0.307,2.549c-0.022,1.555 -0.435,3.016 -1.211,4.359c-0.659,1.139 -1.538,2.104 -2.552,2.95c-0.934,0.784 -1.939,1.464 -2.956,2.132c-0.778,0.513 -1.524,1.066 -2.153,1.758c-0.14,0.151 -0.266,0.319 -0.332,0.52c-0.093,0.276 0.008,0.416 0.297,0.425c0.206,0.008 0.411,0.003 0.62,0.003l7.818,0c0.092,0 0.184,0.005 0.277,0c0.132,-0.005 0.185,0.063 0.185,0.186l0,5.962c0,0.068 -0.004,0.137 -0.004,0.205c0.004,0.099 -0.049,0.143 -0.148,0.143c-0.218,0.002 -0.437,0.008 -0.654,0.008c-2.892,0.004 -5.787,0.004 -8.68,0.004c-3.961,-0.004 -7.923,-0.012 -11.883,-0.017c-0.112,0 -0.229,0.019 -0.346,-0.023c-0.063,-0.107 0.011,-0.203 0.055,-0.283c0.216,-0.404 0.363,-0.84 0.549,-1.258c0.464,-1.038 0.995,-2.043 1.549,-3.032c0.608,-1.08 1.279,-2.12 1.995,-3.132c0.695,-0.982 1.453,-1.92 2.262,-2.812c0.647,-0.714 1.339,-1.391 2.072,-2.014c0.761,-0.645 1.561,-1.239 2.412,-1.766c0.749,-0.464 1.484,-0.961 2.184,-1.5c0.373,-0.288 0.698,-0.635 0.988,-1.002c0.245,-0.313 0.369,-0.69 0.421,-1.08c0.173,-1.352 -0.464,-2.499 -1.627,-3.205c-0.909,-0.556 -1.854,-0.495 -2.823,-0.237c-1,0.267 -1.893,0.759 -2.736,1.338c-0.596,0.409 -1.165,0.858 -1.689,1.36c-0.182,0.176 -0.185,0.173 -0.39,0.008c-0.926,-0.735 -1.846,-1.473 -2.774,-2.203c-0.821,-0.645 -1.646,-1.285 -2.467,-1.928c-0.091,-0.07 -0.175,-0.145 -0.289,-0.239c0.27,-0.371 0.616,-0.624 0.927,-0.905c1.403,-1.268 2.935,-2.353 4.636,-3.19c1.645,-0.812 3.376,-1.35 5.213,-1.538c1.917,-0.196 3.747,0.076 5.489,0.914c1.235,0.593 2.315,1.386 3.238,2.405c1.083,1.195 1.816,2.569 2.22,4.135" style="fill:#269dd8;fill-rule:nonzero;"/><path d="M68.91,0.581c0.145,-0.061 0.261,-0.039 0.375,-0.039c2.387,-0.001 4.777,0.004 7.163,-0.008c0.276,-0.001 0.39,0.089 0.504,0.333c0.396,0.851 0.73,1.731 1.133,2.578c0.354,0.746 0.645,1.516 1,2.26c0.404,0.849 0.736,1.729 1.138,2.576c0.34,0.715 0.618,1.454 0.957,2.167c0.418,0.88 0.767,1.791 1.183,2.67c0.336,0.714 0.619,1.453 0.957,2.167c0.412,0.87 0.755,1.769 1.169,2.636c0.303,0.641 0.554,1.304 0.885,1.977c0.156,-0.228 0.306,-0.421 0.429,-0.632c0.57,-0.97 1.205,-1.896 1.842,-2.82c0.69,-0.999 1.41,-1.98 2.151,-2.941c0.678,-0.88 1.397,-1.729 2.109,-2.583c0.345,-0.413 0.714,-0.806 1.078,-1.202c0.215,-0.233 0.22,-0.227 0.466,-0.03c0.92,0.738 1.841,1.478 2.765,2.213c0.861,0.684 1.727,1.361 2.592,2.043c0.053,0.041 0.102,0.091 0.171,0.152c-0.133,0.16 -0.257,0.319 -0.396,0.464c-0.72,0.755 -1.399,1.545 -2.062,2.352c-0.808,0.984 -1.562,2.005 -2.236,3.086c-0.328,0.526 -0.628,1.065 -0.944,1.596c-0.843,1.419 -1.597,2.882 -2.28,4.387c-0.385,0.846 -0.707,1.712 -1.007,2.588c-0.126,0.368 -0.286,0.727 -0.353,1.112c-0.025,0.147 -0.105,0.188 -0.239,0.177c-0.057,-0.005 -0.115,-0.001 -0.171,-0.001c-2.366,0 -4.73,-0.005 -7.096,0.006c-0.256,0.002 -0.379,-0.068 -0.479,-0.308c-0.418,-0.991 -0.843,-1.982 -1.298,-2.955c-0.375,-0.8 -0.687,-1.626 -1.068,-2.42c-0.381,-0.796 -0.688,-1.624 -1.071,-2.417c-0.383,-0.796 -0.685,-1.626 -1.067,-2.42c-0.384,-0.795 -0.688,-1.622 -1.072,-2.418c-0.383,-0.795 -0.685,-1.625 -1.068,-2.417c-0.382,-0.797 -0.689,-1.623 -1.071,-2.418c-0.382,-0.795 -0.685,-1.624 -1.067,-2.418c-0.379,-0.785 -0.679,-1.602 -1.057,-2.386c-0.387,-0.804 -0.694,-1.644 -1.081,-2.449c-0.382,-0.796 -0.687,-1.624 -1.071,-2.416c-0.289,-0.598 -0.536,-1.212 -0.813,-1.842" style="fill:#2c2c2e;"/><path d="M34.751,42.232l-0.019,0l0,0.715l-0.793,0l0,-7.319l0.793,0l0,3.243l0.019,0c0.389,-0.657 0.96,-0.984 1.71,-0.984c0.633,0 1.13,0.221 1.488,0.664c0.359,0.441 0.538,1.035 0.538,1.779c0,0.826 -0.2,1.49 -0.603,1.987c-0.402,0.495 -0.952,0.746 -1.65,0.746c-0.656,0 -1.148,-0.278 -1.483,-0.831m-0.019,-1.994l0,0.69c0,0.408 0.131,0.755 0.398,1.04c0.266,0.286 0.603,0.427 1.01,0.427c0.48,0 0.856,-0.183 1.128,-0.55c0.271,-0.367 0.409,-0.876 0.409,-1.531c0,-0.55 -0.128,-0.98 -0.382,-1.293c-0.254,-0.312 -0.6,-0.468 -1.032,-0.468c-0.462,0 -0.831,0.16 -1.112,0.48c-0.279,0.321 -0.419,0.721 -0.419,1.205m9.018,2.709l-0.791,0l0,-0.784l-0.019,0c-0.329,0.6 -0.837,0.9 -1.527,0.9c-1.179,0 -1.767,-0.701 -1.767,-2.106l0,-2.955l0.786,0l0,2.83c0,1.043 0.401,1.563 1.198,1.563c0.386,0 0.705,-0.141 0.955,-0.427c0.249,-0.285 0.374,-0.656 0.374,-1.118l0,-2.848l0.791,0l0,4.945Zm1.3,-0.178l0,-0.851c0.43,0.319 0.906,0.477 1.424,0.477c0.696,0 1.044,-0.232 1.044,-0.694c0,-0.132 -0.031,-0.246 -0.09,-0.335c-0.061,-0.092 -0.139,-0.173 -0.241,-0.243c-0.101,-0.072 -0.221,-0.136 -0.359,-0.192c-0.136,-0.056 -0.283,-0.115 -0.441,-0.176c-0.219,-0.088 -0.411,-0.175 -0.577,-0.264c-0.166,-0.087 -0.303,-0.188 -0.415,-0.299c-0.11,-0.111 -0.195,-0.236 -0.251,-0.379c-0.056,-0.141 -0.084,-0.308 -0.084,-0.498c0,-0.232 0.053,-0.436 0.158,-0.616c0.107,-0.178 0.249,-0.328 0.426,-0.448c0.177,-0.12 0.378,-0.213 0.605,-0.274c0.227,-0.061 0.463,-0.09 0.703,-0.09c0.429,0 0.811,0.073 1.149,0.221l0,0.802c-0.362,-0.238 -0.781,-0.357 -1.254,-0.357c-0.149,0 -0.281,0.016 -0.403,0.05c-0.119,0.034 -0.221,0.081 -0.306,0.143c-0.084,0.061 -0.15,0.135 -0.198,0.218c-0.047,0.086 -0.069,0.18 -0.069,0.284c0,0.128 0.022,0.235 0.069,0.322c0.048,0.088 0.115,0.166 0.206,0.233c0.089,0.068 0.2,0.129 0.328,0.183c0.129,0.054 0.276,0.113 0.44,0.178c0.218,0.085 0.415,0.17 0.588,0.259c0.174,0.089 0.323,0.188 0.446,0.3c0.121,0.11 0.215,0.239 0.282,0.384c0.066,0.145 0.098,0.316 0.098,0.516c0,0.246 -0.054,0.458 -0.161,0.638c-0.109,0.18 -0.253,0.329 -0.432,0.448c-0.18,0.121 -0.389,0.208 -0.623,0.268c-0.236,0.056 -0.481,0.086 -0.74,0.086c-0.508,0 -0.95,-0.098 -1.322,-0.294m4.9,-6.023c-0.141,0 -0.262,-0.047 -0.361,-0.145c-0.1,-0.096 -0.149,-0.217 -0.149,-0.366c0,-0.148 0.049,-0.271 0.149,-0.369c0.099,-0.099 0.22,-0.149 0.361,-0.149c0.145,0 0.269,0.05 0.372,0.149c0.099,0.098 0.151,0.221 0.151,0.369c0,0.141 -0.052,0.263 -0.151,0.361c-0.103,0.102 -0.227,0.15 -0.372,0.15m0.388,6.201l-0.793,0l0,-4.945l0.793,0l0,4.945Zm5.707,0l-0.793,0l0,-2.821c0,-1.049 -0.382,-1.573 -1.148,-1.573c-0.396,0 -0.724,0.148 -0.983,0.447c-0.26,0.298 -0.389,0.673 -0.389,1.126l0,2.821l-0.793,0l0,-4.945l0.793,0l0,0.821l0.02,0c0.373,-0.626 0.913,-0.936 1.621,-0.936c0.542,0 0.954,0.174 1.241,0.524c0.288,0.348 0.431,0.854 0.431,1.513l0,3.023Zm5.464,-2.275l-3.49,0c0.014,0.55 0.161,0.976 0.446,1.276c0.282,0.298 0.672,0.447 1.168,0.447c0.557,0 1.068,-0.183 1.536,-0.55l0,0.744c-0.435,0.317 -1.011,0.474 -1.724,0.474c-0.699,0 -1.248,-0.226 -1.646,-0.674c-0.401,-0.45 -0.6,-1.081 -0.6,-1.895c0,-0.77 0.219,-1.396 0.654,-1.881c0.436,-0.483 0.979,-0.726 1.624,-0.726c0.648,0 1.149,0.209 1.502,0.627c0.355,0.418 0.53,0.999 0.53,1.742l0,0.416Zm-0.81,-0.67c-0.003,-0.457 -0.114,-0.813 -0.33,-1.069c-0.218,-0.254 -0.519,-0.38 -0.905,-0.38c-0.373,0 -0.691,0.133 -0.951,0.399c-0.262,0.269 -0.422,0.617 -0.485,1.05l2.671,0Zm1.712,2.767l0,-0.851c0.43,0.319 0.906,0.477 1.422,0.477c0.696,0 1.045,-0.232 1.045,-0.694c0,-0.132 -0.031,-0.246 -0.09,-0.335c-0.06,-0.092 -0.14,-0.173 -0.243,-0.243c-0.099,-0.072 -0.221,-0.136 -0.357,-0.192c-0.136,-0.056 -0.283,-0.115 -0.442,-0.176c-0.218,-0.088 -0.411,-0.175 -0.576,-0.264c-0.165,-0.087 -0.305,-0.188 -0.416,-0.299c-0.111,-0.111 -0.194,-0.236 -0.25,-0.379c-0.057,-0.141 -0.084,-0.308 -0.084,-0.498c0,-0.232 0.053,-0.436 0.157,-0.616c0.108,-0.178 0.25,-0.328 0.427,-0.448c0.178,-0.12 0.379,-0.213 0.606,-0.274c0.225,-0.061 0.46,-0.09 0.702,-0.09c0.428,0 0.811,0.073 1.149,0.221l0,0.802c-0.363,-0.238 -0.782,-0.357 -1.255,-0.357c-0.148,0 -0.282,0.016 -0.402,0.05c-0.119,0.034 -0.221,0.081 -0.307,0.143c-0.083,0.061 -0.148,0.135 -0.196,0.218c-0.048,0.086 -0.07,0.18 -0.07,0.284c0,0.128 0.022,0.235 0.07,0.322c0.048,0.088 0.114,0.166 0.205,0.233c0.089,0.068 0.2,0.129 0.327,0.183c0.129,0.054 0.275,0.113 0.441,0.178c0.217,0.085 0.415,0.17 0.589,0.259c0.173,0.089 0.321,0.188 0.444,0.3c0.122,0.11 0.216,0.239 0.282,0.384c0.067,0.145 0.099,0.316 0.099,0.516c0,0.246 -0.054,0.458 -0.161,0.638c-0.109,0.18 -0.253,0.329 -0.432,0.448c-0.182,0.121 -0.389,0.208 -0.623,0.268c-0.236,0.056 -0.482,0.086 -0.74,0.086c-0.508,0 -0.949,-0.098 -1.321,-0.294m4.195,0l0,-0.851c0.43,0.319 0.906,0.477 1.423,0.477c0.697,0 1.044,-0.232 1.044,-0.694c0,-0.132 -0.029,-0.246 -0.088,-0.335c-0.062,-0.092 -0.141,-0.173 -0.242,-0.243c-0.102,-0.072 -0.222,-0.136 -0.358,-0.192c-0.138,-0.056 -0.284,-0.115 -0.443,-0.176c-0.219,-0.088 -0.41,-0.175 -0.576,-0.264c-0.165,-0.087 -0.304,-0.188 -0.416,-0.299c-0.11,-0.111 -0.195,-0.236 -0.25,-0.379c-0.056,-0.141 -0.085,-0.308 -0.085,-0.498c0,-0.232 0.053,-0.436 0.16,-0.616c0.105,-0.178 0.248,-0.328 0.424,-0.448c0.178,-0.12 0.378,-0.213 0.608,-0.274c0.224,-0.061 0.46,-0.09 0.701,-0.09c0.428,0 0.811,0.073 1.149,0.221l0,0.802c-0.363,-0.238 -0.781,-0.357 -1.255,-0.357c-0.148,0 -0.281,0.016 -0.401,0.05c-0.119,0.034 -0.221,0.081 -0.307,0.143c-0.085,0.061 -0.15,0.135 -0.199,0.218c-0.045,0.086 -0.068,0.18 -0.068,0.284c0,0.128 0.023,0.235 0.068,0.322c0.049,0.088 0.116,0.166 0.206,0.233c0.09,0.068 0.2,0.129 0.328,0.183c0.13,0.054 0.276,0.113 0.44,0.178c0.219,0.085 0.416,0.17 0.588,0.259c0.174,0.089 0.322,0.188 0.447,0.3c0.121,0.11 0.216,0.239 0.281,0.384c0.065,0.145 0.099,0.316 0.099,0.516c0,0.246 -0.055,0.458 -0.162,0.638c-0.109,0.18 -0.251,0.329 -0.432,0.448c-0.181,0.121 -0.388,0.208 -0.622,0.268c-0.237,0.056 -0.482,0.086 -0.74,0.086c-0.508,0 -0.95,-0.098 -1.322,-0.294m6.906,0l0,-0.851c0.43,0.319 0.905,0.477 1.424,0.477c0.695,0 1.042,-0.232 1.042,-0.694c0,-0.132 -0.029,-0.246 -0.088,-0.335c-0.061,-0.092 -0.14,-0.173 -0.242,-0.243c-0.102,-0.072 -0.222,-0.136 -0.358,-0.192c-0.138,-0.056 -0.284,-0.115 -0.442,-0.176c-0.219,-0.088 -0.41,-0.175 -0.577,-0.264c-0.164,-0.087 -0.302,-0.188 -0.415,-0.299c-0.11,-0.111 -0.195,-0.236 -0.25,-0.379c-0.056,-0.141 -0.085,-0.308 -0.085,-0.498c0,-0.232 0.053,-0.436 0.159,-0.616c0.106,-0.178 0.248,-0.328 0.425,-0.448c0.177,-0.12 0.378,-0.213 0.607,-0.274c0.225,-0.061 0.461,-0.09 0.701,-0.09c0.429,0 0.812,0.073 1.149,0.221l0,0.802c-0.363,-0.238 -0.781,-0.357 -1.254,-0.357c-0.148,0 -0.282,0.016 -0.401,0.05c-0.119,0.034 -0.222,0.081 -0.308,0.143c-0.084,0.061 -0.15,0.135 -0.198,0.218c-0.045,0.086 -0.069,0.18 -0.069,0.284c0,0.128 0.024,0.235 0.069,0.322c0.048,0.088 0.117,0.166 0.206,0.233c0.09,0.068 0.199,0.129 0.329,0.183c0.128,0.054 0.275,0.113 0.439,0.178c0.219,0.085 0.416,0.17 0.588,0.259c0.174,0.089 0.323,0.188 0.447,0.3c0.121,0.11 0.215,0.239 0.28,0.384c0.067,0.145 0.1,0.316 0.1,0.516c0,0.246 -0.055,0.458 -0.162,0.638c-0.109,0.18 -0.252,0.329 -0.432,0.448c-0.18,0.121 -0.389,0.208 -0.623,0.268c-0.236,0.056 -0.481,0.086 -0.74,0.086c-0.507,0 -0.949,-0.098 -1.321,-0.294m6.561,0.294c-0.73,0 -1.314,-0.231 -1.75,-0.694c-0.436,-0.461 -0.655,-1.073 -0.655,-1.838c0,-0.829 0.227,-1.477 0.681,-1.946c0.455,-0.465 1.067,-0.698 1.841,-0.698c0.737,0 1.311,0.226 1.726,0.681c0.412,0.453 0.618,1.082 0.618,1.886c0,0.79 -0.222,1.421 -0.666,1.896c-0.447,0.475 -1.045,0.713 -1.795,0.713m0.057,-4.51c-0.508,0 -0.91,0.173 -1.206,0.518c-0.296,0.346 -0.444,0.822 -0.444,1.433c0,0.585 0.15,1.046 0.448,1.384c0.301,0.338 0.702,0.507 1.202,0.507c0.513,0 0.907,-0.166 1.182,-0.497c0.275,-0.331 0.412,-0.802 0.412,-1.415c0,-0.617 -0.137,-1.093 -0.412,-1.428c-0.275,-0.336 -0.669,-0.502 -1.182,-0.502m6.114,-2.232c-0.155,-0.086 -0.329,-0.13 -0.527,-0.13c-0.552,0 -0.829,0.35 -0.829,1.048l0,0.763l1.158,0l0,0.676l-1.158,0l0,4.269l-0.788,0l0,-4.269l-0.844,0l0,-0.676l0.844,0l0,-0.801c0,-0.519 0.151,-0.928 0.449,-1.23c0.301,-0.3 0.674,-0.451 1.122,-0.451c0.241,0 0.433,0.029 0.573,0.087l0,0.714Zm2.946,6.577c-0.186,0.103 -0.433,0.154 -0.739,0.154c-0.866,0 -1.298,-0.483 -1.298,-1.449l0,-2.925l-0.85,0l0,-0.676l0.85,0l0,-1.207l0.792,-0.257l0,1.464l1.245,0l0,0.676l-1.245,0l0,2.787c0,0.331 0.055,0.567 0.169,0.709c0.112,0.14 0.298,0.212 0.561,0.212c0.199,0 0.37,-0.055 0.515,-0.165l0,0.677Zm7.285,-4.896l-1.482,4.945l-0.821,0l-1.018,-3.54c-0.038,-0.136 -0.064,-0.287 -0.079,-0.46l-0.018,0c-0.009,0.118 -0.043,0.266 -0.101,0.45l-1.106,3.55l-0.791,0l-1.498,-4.945l0.83,0l1.024,3.718c0.033,0.113 0.056,0.26 0.067,0.443l0.04,0c0.009,-0.142 0.038,-0.292 0.087,-0.453l1.14,-3.708l0.722,0l1.026,3.728c0.031,0.119 0.056,0.267 0.07,0.444l0.041,0c0.006,-0.126 0.032,-0.275 0.082,-0.444l1.004,-3.728l0.781,0Zm4.458,4.945l-0.792,0l0,-0.773l-0.02,0c-0.344,0.593 -0.851,0.889 -1.52,0.889c-0.493,0 -0.879,-0.132 -1.157,-0.392c-0.279,-0.26 -0.418,-0.606 -0.418,-1.039c0,-0.922 0.545,-1.46 1.632,-1.611l1.483,-0.208c0,-0.839 -0.34,-1.26 -1.02,-1.26c-0.594,0 -1.132,0.203 -1.611,0.608l0,-0.81c0.487,-0.311 1.045,-0.464 1.679,-0.464c1.163,0 1.744,0.615 1.744,1.844l0,3.216Zm-0.792,-2.503l-1.193,0.166c-0.367,0.05 -0.644,0.142 -0.831,0.273c-0.185,0.13 -0.28,0.361 -0.28,0.691c0,0.242 0.086,0.44 0.259,0.593c0.171,0.153 0.401,0.228 0.687,0.228c0.393,0 0.718,-0.137 0.972,-0.412c0.258,-0.274 0.386,-0.624 0.386,-1.046l0,-0.493Zm4.863,-1.642c-0.138,-0.104 -0.339,-0.157 -0.598,-0.157c-0.34,0 -0.622,0.157 -0.849,0.478c-0.226,0.318 -0.341,0.753 -0.341,1.304l0,2.52l-0.792,0l0,-4.945l0.792,0l0,1.019l0.022,0c0.111,-0.348 0.282,-0.618 0.515,-0.814c0.232,-0.195 0.491,-0.293 0.778,-0.293c0.206,0 0.362,0.024 0.473,0.069l0,0.819Zm4.832,1.87l-3.491,0c0.013,0.55 0.162,0.976 0.445,1.276c0.284,0.298 0.673,0.447 1.168,0.447c0.559,0 1.068,-0.183 1.537,-0.55l0,0.744c-0.435,0.317 -1.01,0.474 -1.724,0.474c-0.7,0 -1.248,-0.226 -1.646,-0.674c-0.401,-0.45 -0.601,-1.081 -0.601,-1.895c0,-0.77 0.22,-1.396 0.655,-1.881c0.436,-0.483 0.979,-0.726 1.625,-0.726c0.648,0 1.147,0.209 1.502,0.627c0.353,0.418 0.53,0.999 0.53,1.742l0,0.416Zm-0.811,-0.67c-0.004,-0.457 -0.113,-0.813 -0.329,-1.069c-0.217,-0.254 -0.519,-0.38 -0.907,-0.38c-0.372,0 -0.691,0.133 -0.951,0.399c-0.26,0.269 -0.422,0.617 -0.483,1.05l2.67,0Z" style="fill:#191a18;fill-rule:nonzero;"/></g></svg>