<?xml version="1.0" encoding="UTF-8" standalone="no"?><!DOCTYPE svg PUBLIC "-//W3C//DTD SVG 1.1//EN" "http://www.w3.org/Graphics/SVG/1.1/DTD/svg11.dtd"><svg width="100%" height="100%" viewBox="0 0 143 72" version="1.1" xmlns="http://www.w3.org/2000/svg" xmlns:xlink="http://www.w3.org/1999/xlink" xml:space="preserve" xmlns:serif="http://www.serif.com/" style="fill-rule:evenodd;clip-rule:evenodd;stroke-linejoin:round;stroke-miterlimit:2;"><g><path d="M115.484,42.498l2.818,0c0.331,0 0.597,0.267 0.597,0.598l0,4.845c0,0.331 -0.266,0.598 -0.597,0.598l-2.818,0c-0.331,0 -0.597,-0.267 -0.597,-0.598l0,-4.845c0,-0.331 0.266,-0.598 0.597,-0.598m-55.764,-15.038c-0.962,-0.023 -1.948,0.085 -2.82,0.495c-0.891,0.419 -1.623,1.14 -2.133,1.981c-0.452,0.746 -0.737,1.585 -0.915,2.438c-0.141,0.677 -0.218,1.367 -0.228,2.058l11.583,0.077c-0.005,-0.627 -0.067,-1.253 -0.187,-1.867c-0.166,-0.86 -0.444,-1.698 -0.842,-2.477c-0.408,-0.796 -0.957,-1.544 -1.714,-2.02c-0.809,-0.507 -1.79,-0.663 -2.744,-0.685m32.239,-3.411c0.081,-0.001 0.162,0.02 0.234,0.06c0.069,0.04 0.129,0.099 0.171,0.168c0.046,0.079 0.068,0.168 0.085,0.258c0.02,0.106 0.034,0.215 0.029,0.324c-0.01,0.186 -0.075,0.37 -0.187,0.519l-7.19,10.43l7.819,11.08c0.074,0.144 0.125,0.298 0.149,0.458c0.024,0.158 0.023,0.319 0.027,0.478c0.002,0.072 0.004,0.144 -0.002,0.216c-0.005,0.072 -0.019,0.144 -0.052,0.208c-0.051,0.1 -0.14,0.176 -0.236,0.236c-0.187,0.117 -0.406,0.183 -0.626,0.188l-2.661,0.028c-0.246,-0.017 -0.488,-0.104 -0.687,-0.25c-0.14,-0.102 -0.26,-0.232 -0.35,-0.379l-5.958,-8.704l-6.102,8.786c-0.078,0.119 -0.178,0.222 -0.293,0.305c-0.204,0.146 -0.457,0.223 -0.707,0.215l-2.465,-0.013c-0.131,0.02 -0.268,-0.006 -0.384,-0.071c-0.115,-0.065 -0.206,-0.17 -0.256,-0.292c-0.046,-0.111 -0.056,-0.232 -0.054,-0.352c0.006,-0.375 0.141,-0.749 0.377,-1.043l7.597,-10.811l-7.396,-10.569c-0.164,-0.206 -0.25,-0.475 -0.233,-0.739c0.008,-0.126 0.039,-0.253 0.104,-0.362c0.059,-0.096 0.144,-0.178 0.243,-0.231c0.1,-0.053 0.215,-0.079 0.328,-0.073l3.075,-0.045c0.151,-0.012 0.306,0.02 0.44,0.092c0.089,0.047 0.169,0.109 0.239,0.18c0.098,0.098 0.179,0.211 0.258,0.324l5.462,7.901l5.452,-7.934c0.072,-0.104 0.146,-0.206 0.23,-0.3c0.069,-0.078 0.145,-0.152 0.238,-0.2c0.087,-0.044 0.186,-0.062 0.283,-0.07c0.098,-0.008 0.196,-0.006 0.294,-0.008l2.705,-0.008Zm-32.467,-0.159c0.549,0.01 1.1,0.056 1.644,0.132c1.332,0.185 2.66,0.552 3.799,1.266c1.477,0.926 2.56,2.392 3.26,3.988c0.336,0.767 0.592,1.57 0.727,2.398c0.058,0.356 0.084,0.718 0.089,1.081l0.072,4.36c0.015,0.113 -0.008,0.229 -0.059,0.329c-0.053,0.1 -0.136,0.184 -0.236,0.237c-0.115,0.061 -0.251,0.08 -0.377,0.054l-14.549,0l-0.289,-0.013c-0.004,0.729 0.051,1.458 0.165,2.178c0.206,1.3 0.624,2.607 1.486,3.6c0.704,0.812 1.679,1.374 2.724,1.62c1.154,0.271 2.359,0.168 3.544,0.114c1.273,-0.057 2.554,-0.054 3.81,-0.266c0.843,-0.145 1.678,-0.385 2.534,-0.382c0.143,0.001 0.292,0.01 0.419,0.077c0.081,0.042 0.15,0.107 0.196,0.186c0.047,0.078 0.072,0.17 0.071,0.262l-0.011,2.23c-0.006,0.206 -0.115,0.406 -0.283,0.525c-0.065,0.045 -0.138,0.079 -0.216,0.1c-0.064,0.018 -0.128,0.025 -0.194,0.034c-0.438,0.058 -0.872,0.153 -1.306,0.237c-1.206,0.234 -2.427,0.383 -3.651,0.491c-1.786,0.156 -3.596,0.222 -5.363,-0.082c-1.486,-0.255 -2.939,-0.779 -4.175,-1.642c-1.047,-0.732 -1.928,-1.705 -2.532,-2.829c-0.535,-0.995 -0.851,-2.096 -1.051,-3.206c-0.279,-1.549 -0.341,-3.129 -0.343,-4.703c-0.003,-1.402 0.042,-2.813 0.316,-4.189c0.399,-2 1.3,-3.923 2.72,-5.388c1.177,-1.215 2.697,-2.094 4.338,-2.506c0.889,-0.222 1.805,-0.308 2.721,-0.293m-26.538,-0.057l4.571,0c3.863,0 6.974,3.11 6.974,6.974l0,0.324l-0.007,0c0.015,0.064 0.026,0.129 0.026,0.198l0,16.38c0,0.476 -0.383,0.859 -0.859,0.859l-2.245,0c-0.476,0 -0.86,-0.383 -0.86,-0.859l0,-16.38c-0.006,-0.239 -0.007,-0.298 -0.008,-0.505c0,-1.843 -1.484,-3.326 -3.326,-3.326l-3.978,0c-1.841,0 -3.325,1.483 -3.325,3.326l0,0.403l-0.002,0c0.001,0.007 0.001,0.015 0.002,0.024l0,7.247c0,0.052 0.005,0.102 0.007,0.153l0,9.058c0,0.476 -0.383,0.859 -0.859,0.859l-2.244,0c-0.476,0 -0.859,-0.383 -0.859,-0.859l0,-16.38c0,-0.065 0.008,-0.128 0.022,-0.188c-0.001,-0.124 -0.003,-0.283 -0.003,-0.334c0,-3.864 3.11,-6.974 6.973,-6.974m82.591,-5.039l2.697,0c0.345,0 0.629,0.279 0.624,0.624l-0.31,20.081c-0.006,0.346 -0.278,0.623 -0.624,0.623l-2.118,0c-0.345,0 -0.62,-0.277 -0.624,-0.623l-0.27,-20.081c-0.004,-0.345 0.279,-0.624 0.625,-0.624m-14.578,-0.114c0.076,-0.003 0.151,0.005 0.224,0.024c0.146,0.037 0.28,0.116 0.384,0.226c0.135,0.143 0.214,0.337 0.217,0.535l-0.009,4.604l6.869,-0.021c0.243,0.038 0.467,0.185 0.599,0.392c0.077,0.12 0.122,0.258 0.134,0.4l-0.007,2.075c-0.001,0.154 -0.061,0.307 -0.164,0.421c-0.067,0.073 -0.149,0.129 -0.238,0.171c-0.16,0.076 -0.34,0.109 -0.515,0.092l-6.643,0l0.004,15.892c0,0.256 0.013,0.52 0.119,0.754c0.067,0.148 0.168,0.281 0.282,0.399c0.167,0.173 0.364,0.315 0.572,0.437c0.282,0.167 0.587,0.297 0.904,0.382c0.715,0.191 1.468,0.148 2.208,0.123c0.665,-0.023 1.331,-0.031 1.992,-0.105c0.298,-0.033 0.599,-0.079 0.897,-0.037c0.137,0.019 0.277,0.06 0.38,0.152c0.091,0.082 0.148,0.201 0.153,0.323l0.009,2.012c0,0.121 -0.031,0.244 -0.09,0.351c-0.109,0.194 -0.312,0.331 -0.531,0.36c-1.064,0.096 -2.132,0.151 -3.2,0.163c-1.233,0.015 -2.466,-0.026 -3.695,-0.123c-0.73,-0.1 -1.438,-0.363 -2.057,-0.762c-0.712,-0.46 -1.308,-1.105 -1.677,-1.866c-0.208,-0.43 -0.344,-0.897 -0.381,-1.373c-0.036,-0.468 0,-0.939 0,-1.409l0.029,-22.995l-0.001,0c-0.013,-0.339 0.127,-0.682 0.375,-0.914c0.082,-0.076 0.175,-0.139 0.278,-0.185c0.102,-0.044 0.211,-0.067 0.322,-0.088l2.036,-0.371c0.071,-0.023 0.147,-0.037 0.221,-0.039m-92.913,-18.68c-4.462,0 -8.054,3.592 -8.054,8.054l0,55.105c0,4.462 3.592,8.053 8.054,8.053l126.317,0c4.462,0 8.054,-3.591 8.054,-8.053l0,-55.105c0,-4.462 -3.592,-8.054 -8.054,-8.054l-126.317,0Z" style="fill:#e41e25;fill-rule:nonzero;"/></g></svg>