<?xml version="1.0" encoding="UTF-8" standalone="no"?><!DOCTYPE svg PUBLIC "-//W3C//DTD SVG 1.1//EN" "http://www.w3.org/Graphics/SVG/1.1/DTD/svg11.dtd"><svg width="100%" height="100%" viewBox="0 0 144 32" version="1.1" xmlns="http://www.w3.org/2000/svg" xmlns:xlink="http://www.w3.org/1999/xlink" xml:space="preserve" xmlns:serif="http://www.serif.com/" style="fill-rule:evenodd;clip-rule:evenodd;stroke-linejoin:round;stroke-miterlimit:2;"><g><path d="M0.675,7.002l0,23.048l6.99,0l0,-8.069l7.791,0l0,8.069l6.99,0l0,-23.048l-6.99,0l0,8.81l-7.791,0l0,-8.81l-6.99,0Z" style="fill:#e61d25;fill-rule:nonzero;"/><rect x="44.079" y="7.002" width="6.99" height="23.048" style="fill:#e61d25;"/><path d="M53.619,12.028l6.992,0l0,-5.123l-6.992,0l0,5.123Zm0,18.022l6.99,0l0,-15.967l-6.99,0l0,15.967Z" style="fill:#e61d25;fill-rule:nonzero;"/><path d="M71.898,12.669c-5.293,0 -9.583,4.002 -9.583,8.939c0,4.937 4.29,8.938 9.583,8.938c5.292,0 9.582,-4.001 9.582,-8.938c0,-2.371 -1.009,-4.645 -2.807,-6.32c-1.797,-1.677 -4.234,-2.619 -6.775,-2.619m-0.024,5.574c0.902,0 1.768,0.358 2.406,0.996c0.638,0.639 0.997,1.503 0.997,2.405c0,1.877 -1.524,3.399 -3.403,3.399c-1.88,0 -3.403,-1.522 -3.403,-3.399c0,-0.902 0.358,-1.766 0.997,-2.405c0.638,-0.638 1.503,-0.996 2.406,-0.996" style="fill:#e61d25;fill-rule:nonzero;"/><path d="M83.202,30.079l6.637,0c0.012,-3.668 0.009,-7.434 0.009,-11.135c0,0 2.045,-0.229 3.052,-0.085c0.168,0.024 0.344,0.065 0.487,0.157c0.353,0.231 0.646,0.571 0.842,0.944c0.105,0.195 0.128,0.425 0.162,0.644c0.038,0.246 0.045,0.743 0.045,0.743l0.04,8.721l6.654,0l0,-12.1c0,0 -0.047,-0.462 -0.13,-0.676c-0.406,-1.035 -0.946,-2.077 -1.764,-2.829c-0.765,-0.704 -1.771,-1.159 -2.775,-1.426c-1.429,-0.38 -4.431,-0.2 -4.431,-0.2l-8.918,0.79l0,16.454l0.09,-0.002Z" style="fill:#e61d25;fill-rule:nonzero;"/><path d="M109.265,0.46l-0.01,4.584l2.45,0.003l0,-2.087l14.471,0l2.795,-2.5l-19.706,0Zm32.191,0.188c-2.961,-0.003 -8.908,0 -9.092,0.023c-0.075,0.011 -0.102,0.012 -0.153,0.021c-0.078,0.013 -0.158,0.025 -0.232,0.051c-0.322,0.109 -0.634,0.251 -0.923,0.428c-0.166,0.102 -0.46,0.363 -0.46,0.363l-13.942,13.527l0,-8.157l-15.574,0l-0.272,0.005c0,0 2.456,4.97 2.619,5.189c0.163,0.218 0.308,0.487 0.515,0.683c0.231,0.216 0.5,0.403 0.792,0.525c0.163,0.068 0.519,0.108 0.519,0.108l4.042,-0.026l0.006,15.85c0,0 0.023,0.576 0.14,0.833c0.141,0.306 0.361,0.599 0.649,0.775c0.564,0.344 1.285,0.563 1.933,0.437c0.441,-0.086 1.106,-0.767 1.106,-0.767l29.971,-29.867l-1.644,0l0,-0.001Zm-6.739,10.948c-0.826,0.899 -1.668,1.787 -2.466,2.709l0,13.329l-13.473,0l-2.683,2.499l18.622,0l0,-18.537Z" style="fill:#e61d25;fill-rule:nonzero;"/><path d="M33.144,12.749c-0.677,0.006 -1.355,0.081 -2.017,0.227c-1.799,0.396 -3.499,1.325 -4.691,2.729c-1.219,1.435 -1.863,3.304 -1.994,5.182c-0.156,2.226 0.413,4.546 1.809,6.287c1.357,1.692 3.415,2.744 5.551,3.128c2.143,0.384 4.36,0.138 6.47,-0.398c0.97,-0.247 1.923,-0.554 2.852,-0.921l-0.92,-4.416c-0.396,0.115 -0.794,0.22 -1.195,0.313c-0.783,0.183 -1.577,0.324 -2.374,0.434c-1.101,0.152 -2.227,0.246 -3.318,0.032c-0.506,-0.099 -1.008,-0.268 -1.431,-0.564c-0.439,-0.306 -0.783,-0.747 -0.975,-1.247l10.366,0.052c0.182,-0.55 0.316,-1.116 0.4,-1.688c0.19,-1.313 0.113,-2.677 -0.338,-3.925c-0.732,-2.028 -2.431,-3.633 -4.416,-4.478c-1.19,-0.506 -2.485,-0.755 -3.779,-0.747m0.268,4.938c0.12,0.001 0.241,0.011 0.36,0.026c0.468,0.064 0.921,0.24 1.291,0.532c0.413,0.326 0.707,0.793 0.846,1.3c0.046,0.171 0.075,0.346 0.086,0.522l-5.378,0.021c0.058,-0.317 0.165,-0.626 0.316,-0.91c0.229,-0.438 0.567,-0.822 0.985,-1.086c0.443,-0.278 0.97,-0.412 1.494,-0.405" style="fill:#e61d25;fill-rule:nonzero;"/><path d="M138.672,25.659c-1.192,0 -2.159,0.977 -2.159,2.182c0,0.578 0.228,1.134 0.633,1.542c0.405,0.41 0.954,0.64 1.526,0.64c0.573,0 1.122,-0.23 1.527,-0.64c0.405,-0.408 0.633,-0.964 0.633,-1.542c0,-1.205 -0.967,-2.182 -2.16,-2.182m-0.006,0.417c0.968,0 1.753,0.792 1.753,1.771c0,0.978 -0.785,1.77 -1.753,1.77c-0.967,0 -1.751,-0.792 -1.751,-1.77c0,-0.979 0.784,-1.771 1.751,-1.771m-0.796,0.622l0,2.392l0.356,0l0,-1.011l0.53,0l0.543,1.011l0.423,0l-0.587,-1.046c0.045,-0.013 0.088,-0.029 0.127,-0.049c0.112,-0.058 0.199,-0.139 0.26,-0.243c0.062,-0.105 0.093,-0.226 0.093,-0.363c0,-0.137 -0.031,-0.257 -0.093,-0.362c-0.06,-0.105 -0.146,-0.186 -0.258,-0.244c-0.111,-0.056 -0.239,-0.085 -0.387,-0.085l-1.007,0Zm0.356,0.319l0.666,0c0.069,0 0.128,0.016 0.181,0.047c0.051,0.03 0.091,0.074 0.12,0.131c0.029,0.056 0.043,0.12 0.043,0.194c0,0.074 -0.014,0.139 -0.043,0.196c-0.029,0.055 -0.069,0.099 -0.12,0.129c-0.054,0.032 -0.113,0.047 -0.181,0.047l-0.666,0l0,-0.744Z" style="fill:#e61d25;fill-rule:nonzero;"/></g></svg>