<?xml version="1.0" encoding="UTF-8" standalone="no"?><!DOCTYPE svg PUBLIC "-//W3C//DTD SVG 1.1//EN" "http://www.w3.org/Graphics/SVG/1.1/DTD/svg11.dtd"><svg width="100%" height="100%" viewBox="0 0 143 38" version="1.1" xmlns="http://www.w3.org/2000/svg" xmlns:xlink="http://www.w3.org/1999/xlink" xml:space="preserve" xmlns:serif="http://www.serif.com/" style="fill-rule:evenodd;clip-rule:evenodd;stroke-linejoin:round;stroke-miterlimit:2;"><g><path d="M31.332,25.809l0,-24.853l4.12,0l0,24.851l-4.12,0l0,0.002Z" style="fill:#374769;fill-rule:nonzero;"/><path d="M48.361,20.221l-3.289,0l-2.581,-9.608l0,15.196l-3.834,0l0,-24.853l3.907,0l3.973,14.777l4.008,-14.777l4.047,0l0,24.851l-3.977,0l0,-15.197l-2.254,9.611Z" style="fill:#374769;fill-rule:nonzero;"/><path d="M70.463,20.838c0,3.833 -2.486,5.255 -6.249,5.255l-0.284,0c-3.763,0 -6.249,-1.383 -6.249,-5.255l0,-14.91c0,-3.693 2.486,-5.255 6.249,-5.255l0.284,0c3.763,0 6.249,1.56 6.249,5.255l0,4.207l-4.118,0l0,-3.568c0,-1.776 -0.924,-2.272 -2.273,-2.272c-1.348,0 -2.27,0.499 -2.27,2.272l0,13.632c0,1.776 0.922,2.272 2.27,2.272c1.349,0 2.273,-0.498 2.273,-2.272l0,-3.691l-1.922,0l0,-2.987l6.04,0l0,7.317Z" style="fill:#374769;fill-rule:nonzero;"/><path d="M73.807,25.809l0,-24.853l4.119,0l5.219,15.371l0,-15.371l3.763,0l0,24.851l-3.907,0l-5.431,-16.155l0,16.155l-3.763,0l0,0.002Z" style="fill:#374769;fill-rule:nonzero;"/><rect x="90.277" y="20.265" width="5.44" height="5.544" style="fill:#374769;"/><path d="M111.343,6.212l0,8.653c0,3.763 -2.485,5.255 -6.248,5.255l-2.31,0l0,5.689l-4.117,0l0,-24.854l6.427,0c3.763,0 6.248,1.492 6.248,5.257m-4.118,0.639c0,-1.776 -0.923,-2.272 -2.271,-2.272l-2.166,0l0,11.921l2.166,0c1.348,0 2.271,-0.498 2.271,-2.272l0,-7.377Z" style="fill:#374769;fill-rule:nonzero;"/><path d="M123.316,25.809l-2.177,-5.645l-3.042,0l0,5.645l-4.119,0l0,-24.853l6.427,0c3.764,0 6.248,1.491 6.248,5.254l0,9.353c0,2.379 -0.164,3.893 -1.55,4.616l2.404,5.628l-4.191,0l0,0.002Zm-5.219,-9.195l2.165,0c1.348,0 2.271,-0.497 2.271,-2.271l0,-7.492c0,-1.775 -0.923,-2.271 -2.271,-2.271l-2.165,0l0,12.034Z" style="fill:#374769;fill-rule:nonzero;"/><path d="M135.893,0.673l0.283,0c3.764,0 6.249,1.49 6.249,5.256l0,14.909c0,3.764 -2.485,5.255 -6.249,5.255l-0.283,0c-3.764,0 -6.249,-1.489 -6.249,-5.255l0,-14.909c0,-3.802 2.485,-5.256 6.249,-5.256m0.143,21.798c1.351,0 2.271,-0.498 2.271,-2.272l0,-13.632c0,-1.776 -0.923,-2.272 -2.271,-2.272c-1.348,0 -2.272,0.499 -2.272,2.272l0,13.632c-0.003,1.774 0.924,2.272 2.272,2.272" style="fill:#374769;fill-rule:nonzero;"/><path d="M31.195,31.286l0.928,0l0,2.403l3.392,0l0,-2.403l0.93,0l0,5.679l-0.928,0l0,-2.522l-3.392,0l0,2.522l-0.928,0l0,-5.679l-0.002,0Z" style="fill:#374769;fill-rule:nonzero;"/><path d="M43.626,31.145c1.925,0 3.146,1.272 3.146,2.873c0,1.613 -1.279,3.085 -3.23,3.085c-1.902,0 -3.124,-1.377 -3.124,-2.968c0.003,-1.518 1.152,-2.99 3.208,-2.99m-0.06,5.183c1.41,0 2.219,-1.109 2.219,-2.239c0,-1.117 -0.775,-2.166 -2.196,-2.166c-1.411,0 -2.184,1.06 -2.184,2.179c0,1.047 0.754,2.226 2.161,2.226" style="fill:#374769;fill-rule:nonzero;"/><path d="M50.655,31.286l0.927,0l0,3.486c0,1.13 0.694,1.567 1.586,1.567c0.917,0 1.587,-0.484 1.587,-1.531l0,-3.524l0.928,0l0,3.485c0,1.532 -1.14,2.332 -2.526,2.332c-1.385,0 -2.5,-0.612 -2.5,-2.215l0,-3.6l-0.003,0l0.001,0Z" style="fill:#374769;fill-rule:nonzero;"/><path d="M59.82,35.82c0,0 0.681,0.508 1.552,0.497c0.586,0 1.115,-0.247 1.115,-0.718c0,-1.167 -2.83,-1.118 -2.83,-2.899c0,-0.848 0.74,-1.553 2.032,-1.553c0.821,0 1.598,0.261 1.598,0.261l-0.188,0.823c0,0 -0.692,-0.295 -1.41,-0.295c-0.611,0 -1.094,0.223 -1.094,0.672c0,1.189 2.819,1.073 2.819,2.921c0,1.015 -0.927,1.578 -2.055,1.578c-1.08,0 -1.799,-0.482 -1.799,-0.482l0.26,-0.805Z" style="fill:#374769;fill-rule:nonzero;"/><path d="M67.387,31.286l3.688,0l0,0.754l-2.761,0l0,1.661l2.184,0l0,0.742l-2.184,0l0,1.768l2.783,0l0,0.754l-3.71,0l0,-5.679Z" style="fill:#374769;fill-rule:nonzero;"/><path d="M83.013,31.145c1.926,0 3.146,1.272 3.146,2.873c0,1.613 -1.28,3.085 -3.231,3.085c-1.9,0 -3.123,-1.377 -3.123,-2.968c0.002,-1.518 1.152,-2.99 3.208,-2.99m-0.058,5.183c1.41,0 2.219,-1.109 2.219,-2.239c0,-1.117 -0.775,-2.166 -2.196,-2.166c-1.41,0 -2.184,1.06 -2.184,2.179c0,1.047 0.751,2.226 2.161,2.226" style="fill:#374769;fill-rule:nonzero;"/><path d="M90.136,31.286l3.628,0l0,0.754l-2.7,0l0,1.697l2.148,0l0,0.764l-2.148,0l0,2.461l-0.928,0l0,-5.676Z" style="fill:#374769;fill-rule:nonzero;"/><path d="M105.599,31.145c1.234,0 2.043,0.482 2.043,0.482l-0.364,0.779c0,0 -0.726,-0.472 -1.726,-0.472c-1.526,0 -2.302,1.049 -2.302,2.214c0,1.296 0.975,2.169 2.419,2.169c0.529,0 1.058,-0.106 1.058,-0.106l0,-1.497l-1.256,0l0,-0.752l2.183,0l0,2.872c0,0 -1.198,0.271 -2.09,0.271c-1.821,0 -3.277,-1.095 -3.277,-2.886c-0.003,-1.638 1.186,-3.074 3.312,-3.074" style="fill:#374769;fill-rule:nonzero;"/><path d="M113.284,31.238l0.904,0l2.313,5.724l-0.952,0l-0.599,-1.496l-2.466,0l-0.586,1.496l-0.916,0l2.302,-5.724Zm-0.494,3.474l1.867,0l-0.938,-2.355l-0.929,2.355Z" style="fill:#374769;fill-rule:nonzero;"/><path d="M120.229,31.286l1.326,0l1.679,4.345l1.715,-4.345l1.315,0l0.223,5.679l-0.904,0l-0.188,-4.663l-1.843,4.663l-0.645,0l-1.834,-4.688l-0.165,4.688l-0.903,0l0.224,-5.679Z" style="fill:#374769;fill-rule:nonzero;"/><path d="M130.793,31.286l3.688,0l0,0.754l-2.761,0l0,1.661l2.184,0l0,0.742l-2.184,0l0,1.768l2.782,0l0,0.754l-3.709,0l0,-5.679Z" style="fill:#374769;fill-rule:nonzero;"/><path d="M138.301,35.82c0,0 0.681,0.508 1.551,0.497c0.586,0 1.115,-0.247 1.115,-0.718c0,-1.167 -2.832,-1.118 -2.832,-2.899c0,-0.848 0.741,-1.553 2.031,-1.553c0.824,0 1.599,0.261 1.599,0.261l-0.187,0.823c0,0 -0.695,-0.295 -1.412,-0.295c-0.609,0 -1.092,0.223 -1.092,0.672c0,1.189 2.818,1.073 2.818,2.921c0,1.015 -0.927,1.578 -2.056,1.578c-1.079,0 -1.797,-0.482 -1.797,-0.482l0.262,-0.805Z" style="fill:#374769;fill-rule:nonzero;"/><rect x="0" y="0.796" width="25.007" height="25.007" style="fill:#e65125;"/></g></svg>