<?xml version="1.0" encoding="UTF-8" standalone="no"?><!DOCTYPE svg PUBLIC "-//W3C//DTD SVG 1.1//EN" "http://www.w3.org/Graphics/SVG/1.1/DTD/svg11.dtd"><svg width="100%" height="100%" viewBox="0 0 143 48" version="1.1" xmlns="http://www.w3.org/2000/svg" xmlns:xlink="http://www.w3.org/1999/xlink" xml:space="preserve" xmlns:serif="http://www.serif.com/" style="fill-rule:evenodd;clip-rule:evenodd;stroke-linejoin:round;stroke-miterlimit:2;"><g><rect x="0" y="0.599" width="142.425" height="34.783" style="fill:#1a482c;"/><rect x="0" y="37.669" width="142.425" height="9.829" style="fill:#979695;"/><path d="M13.514,43.608c0,0.413 -0.16,0.747 -0.482,1.005c-0.335,0.268 -0.784,0.401 -1.345,0.401c-0.452,0 -0.923,-0.081 -1.412,-0.244l0.176,-0.917c0.512,0.149 0.901,0.224 1.169,0.224c0.353,0 0.529,-0.115 0.529,-0.346c0,-0.177 -0.127,-0.345 -0.38,-0.503c-0.199,-0.104 -0.4,-0.208 -0.605,-0.312c-0.561,-0.313 -0.841,-0.747 -0.841,-1.304c0,-0.453 0.161,-0.806 0.485,-1.059c0.324,-0.254 0.789,-0.381 1.396,-0.381c0.375,0 0.803,0.074 1.283,0.224l-0.176,0.876c-0.386,-0.117 -0.755,-0.176 -1.107,-0.176c-0.209,0 -0.372,0.037 -0.489,0.112c-0.118,0.075 -0.177,0.166 -0.177,0.275c0,0.126 0.084,0.239 0.251,0.339c0.209,0.1 0.419,0.202 0.632,0.306c0.38,0.19 0.657,0.401 0.832,0.632c0.174,0.23 0.262,0.513 0.262,0.848l-0.001,0Z" style="fill:#fff;fill-rule:nonzero;"/><path d="M19.837,40.24l-1.658,2.73l-0.04,1.956l-1.23,0l0.028,-1.949l-1.63,-2.737l1.351,0l0.666,1.318c0.032,0.068 0.108,0.271 0.231,0.611c0.131,-0.295 0.226,-0.494 0.285,-0.598l0.74,-1.331l1.257,0Z" style="fill:#fff;fill-rule:nonzero;"/><path d="M24.609,43.608c0,0.413 -0.161,0.747 -0.482,1.005c-0.335,0.268 -0.783,0.401 -1.344,0.401c-0.453,0 -0.924,-0.081 -1.413,-0.244l0.176,-0.917c0.512,0.149 0.902,0.224 1.169,0.224c0.353,0 0.529,-0.115 0.529,-0.346c0,-0.177 -0.126,-0.345 -0.38,-0.503c-0.199,-0.104 -0.401,-0.208 -0.604,-0.312c-0.562,-0.313 -0.842,-0.747 -0.842,-1.304c0,-0.453 0.161,-0.806 0.485,-1.059c0.324,-0.254 0.789,-0.381 1.396,-0.381c0.375,0 0.803,0.074 1.283,0.224l-0.176,0.876c-0.386,-0.117 -0.755,-0.176 -1.107,-0.176c-0.209,0 -0.372,0.037 -0.489,0.112c-0.118,0.075 -0.177,0.166 -0.177,0.275c0,0.126 0.084,0.239 0.251,0.339c0.208,0.1 0.419,0.202 0.632,0.306c0.38,0.19 0.657,0.401 0.832,0.632c0.174,0.23 0.261,0.513 0.261,0.848" style="fill:#fff;fill-rule:nonzero;"/><path d="M30.545,40.24l-0.015,1.032l-1.405,0l-0.061,3.654l-1.223,0l0.062,-3.654l-1.399,0l0.013,-1.032l4.028,0Z" style="fill:#fff;fill-rule:nonzero;"/><path d="M35.868,40.24l-0.007,0.91l-2.072,0l-0.013,0.931l2.043,0l-0.012,0.909l-2.052,0l-0.013,1.005l2.092,0l-0.015,0.931l-3.299,0l0.08,-4.686l3.268,0Z" style="fill:#fff;fill-rule:nonzero;"/><path d="M44.018,44.926l-1.148,0l-0.306,-2.778c-0.018,-0.163 -0.043,-0.48 -0.074,-0.95c-0.078,0.43 -0.146,0.756 -0.205,0.978l-0.72,2.75l-1.351,0l-0.631,-2.75c-0.023,-0.095 -0.082,-0.417 -0.177,-0.965c-0.005,0.027 -0.054,0.383 -0.149,1.067l-0.374,2.648l-1.134,0l0.89,-4.686l1.453,0l0.652,2.812c0.036,0.163 0.093,0.47 0.17,0.923c0.077,-0.407 0.138,-0.697 0.183,-0.869l0.754,-2.866l1.446,0l0.72,4.686l0.001,0Z" style="fill:#fff;fill-rule:nonzero;"/><path d="M50.195,40.24l-1.657,2.73l-0.041,1.956l-1.229,0l0.028,-1.949l-1.63,-2.737l1.351,0l0.666,1.318c0.031,0.068 0.108,0.271 0.23,0.611c0.132,-0.295 0.227,-0.494 0.286,-0.598l0.74,-1.331l1.256,0Z" style="fill:#fff;fill-rule:nonzero;"/><path d="M55.642,44.926l0.081,-4.707l1.209,0.021l-0.081,4.707l-1.209,-0.021Z" style="fill:#fff;"/><path d="M63.469,40.24l-0.027,4.686l-1.434,0l-1.446,-2.866c-0.104,-0.204 -0.208,-0.448 -0.312,-0.733c0.018,0.457 0.029,0.767 0.034,0.93l0.054,2.669l-1.1,0l0.04,-4.686l1.407,0l1.439,2.853c0.136,0.271 0.247,0.518 0.333,0.74c-0.009,-0.109 -0.018,-0.376 -0.027,-0.802l-0.068,-2.791l1.107,0Z" style="fill:#fff;fill-rule:nonzero;"/><path d="M69.151,40.24l-0.013,0.971l-2.052,0l-0.013,0.917l2.024,0l-0.013,0.944l-2.032,0l-0.026,1.854l-1.208,0l0.08,-4.686l3.253,0Z" style="fill:#fff;fill-rule:nonzero;"/><path d="M74.788,42.59c0,-0.444 -0.107,-0.791 -0.32,-1.043c-0.212,-0.251 -0.499,-0.377 -0.862,-0.377c-0.371,0 -0.662,0.126 -0.872,0.377c-0.211,0.252 -0.316,0.604 -0.316,1.056c0,0.44 0.105,0.781 0.316,1.026c0.21,0.244 0.498,0.366 0.865,0.366c0.372,0 0.663,-0.123 0.873,-0.369c0.21,-0.247 0.316,-0.593 0.316,-1.036m1.263,0.02c0,0.326 -0.061,0.642 -0.183,0.947c-0.122,0.306 -0.283,0.561 -0.483,0.765c-0.448,0.457 -1.061,0.685 -1.84,0.685c-0.688,0 -1.245,-0.203 -1.671,-0.611c-0.48,-0.461 -0.72,-1.059 -0.72,-1.793c0,-0.729 0.227,-1.319 0.679,-1.769c0.453,-0.45 1.049,-0.676 1.787,-0.676c0.76,0 1.356,0.227 1.786,0.68c0.43,0.452 0.645,1.043 0.645,1.772" style="fill:#fff;fill-rule:nonzero;"/><path d="M80.73,41.72c0,-0.42 -0.233,-0.631 -0.7,-0.631l-0.537,0l-0.02,1.27l0.496,0c0.507,0 0.761,-0.213 0.761,-0.639m1.589,3.206l-1.331,0l-0.673,-1.324c-0.077,-0.15 -0.158,-0.253 -0.244,-0.309c-0.087,-0.057 -0.206,-0.086 -0.36,-0.086l-0.238,0l-0.027,1.719l-1.215,0l0.067,-4.686l1.78,0c1.213,0 1.82,0.432 1.82,1.297c0,0.706 -0.351,1.125 -1.053,1.257c0.281,0.099 0.519,0.332 0.713,0.699l0.761,1.433Z" style="fill:#fff;fill-rule:nonzero;"/><path d="M90.262,44.926l-1.148,0l-0.306,-2.778c-0.018,-0.163 -0.043,-0.48 -0.075,-0.95c-0.076,0.43 -0.145,0.756 -0.203,0.978l-0.72,2.75l-1.352,0l-0.631,-2.75c-0.023,-0.095 -0.082,-0.417 -0.177,-0.965c-0.004,0.027 -0.054,0.383 -0.149,1.067l-0.374,2.648l-1.134,0l0.889,-4.686l1.454,0l0.652,2.812c0.036,0.163 0.093,0.47 0.17,0.923c0.077,-0.407 0.138,-0.697 0.183,-0.869l0.754,-2.866l1.447,0l0.72,4.686Z" style="fill:#fff;fill-rule:nonzero;"/><path d="M95.072,42.923l-0.414,-1.266c-0.004,-0.018 -0.054,-0.203 -0.149,-0.555l-0.021,-0.081l-0.182,0.65l-0.429,1.252l1.196,0l-0.001,0Zm1.923,2.003l-1.297,0l-0.374,-1.094l-1.712,0l-0.4,1.094l-1.311,0l1.875,-4.686l1.487,0l1.732,4.686Z" style="fill:#fff;fill-rule:nonzero;"/><path d="M102.372,40.24l-0.014,1.032l-1.406,0l-0.061,3.654l-1.222,0l0.06,-3.654l-1.398,0l0.013,-1.032l4.028,0Z" style="fill:#fff;fill-rule:nonzero;"/><path d="M108.441,40.24l-1.657,2.73l-0.041,1.956l-1.229,0l0.027,-1.949l-1.63,-2.737l1.352,0l0.665,1.318c0.032,0.068 0.109,0.271 0.231,0.611c0.131,-0.295 0.226,-0.494 0.285,-0.598l0.741,-1.331l1.256,0Z" style="fill:#fff;fill-rule:nonzero;"/><path d="M113.824,40.362l-0.217,1.005c-0.326,-0.108 -0.631,-0.162 -0.917,-0.162c-0.452,0 -0.814,0.128 -1.086,0.386c-0.272,0.259 -0.408,0.594 -0.408,1.005c0,0.394 0.132,0.714 0.394,0.958c0.263,0.245 0.61,0.367 1.04,0.367c0.267,0 0.588,-0.059 0.964,-0.177l0.19,0.999c-0.57,0.172 -1.06,0.258 -1.467,0.258c-0.733,0 -1.321,-0.224 -1.762,-0.669c-0.442,-0.447 -0.662,-1.036 -0.662,-1.769c0,-0.716 0.234,-1.295 0.703,-1.739c0.468,-0.444 1.089,-0.665 1.863,-0.665c0.408,0 0.863,0.067 1.365,0.203" style="fill:#fff;fill-rule:nonzero;"/><path d="M119.417,41.028l-2.256,2.879l2.126,0l-0.006,1.019l-3.416,0l-0.245,-0.843l2.275,-2.838l-2.139,0l0,-1.005l3.409,0l0.252,0.788Z" style="fill:#fff;fill-rule:nonzero;"/><path d="M125.709,40.24l-0.027,4.686l-1.434,0l-1.446,-2.866c-0.104,-0.204 -0.208,-0.448 -0.312,-0.733c0.018,0.457 0.029,0.767 0.034,0.93l0.054,2.669l-1.1,0l0.04,-4.686l1.407,0l1.439,2.853c0.136,0.271 0.247,0.518 0.333,0.74c-0.009,-0.109 -0.018,-0.376 -0.027,-0.802l-0.068,-2.791l1.107,0Z" style="fill:#fff;fill-rule:nonzero;"/><path d="M131.406,40.24l-0.007,0.91l-2.071,0l-0.015,0.931l2.044,0l-0.012,0.909l-2.051,0l-0.014,1.005l2.092,0l-0.015,0.931l-3.299,0l0.081,-4.686l3.267,0Z" style="fill:#fff;fill-rule:nonzero;"/><path d="M24.203,8.887l-0.529,3.715l8.302,2.655l0.579,-3.439l-8.352,-2.931Z" style="fill:#fff;fill-rule:nonzero;"/><path d="M18.495,12.385l-0.86,3.526l13.39,4.524l0.691,-3.528l-13.221,-4.522Z" style="fill:#fff;fill-rule:nonzero;"/><path d="M13.166,16.349l-0.746,3.435l17.588,6.197l0.638,-3.575l-17.48,-6.057Z" style="fill:#fff;fill-rule:nonzero;"/><path d="M31.549,9.459c0.029,-1.302 0.059,-2.604 0.088,-3.906c1.802,0.028 3.604,0.056 5.407,0.083c7.893,0.12 11.268,5.365 11.236,10.926c-0.08,3.568 -1.057,4.87 -4.952,4.566c1.489,3.194 2.978,6.388 4.467,9.582l-4.569,-0.07c-1.705,-3.504 -3.411,-7.007 -5.115,-10.51c0.14,-1.285 0.28,-2.57 0.421,-3.855c2.086,2.223 5.236,1.796 5.44,-1.479c-0.111,-3.342 -3.598,-5.264 -7.128,-5.302c-1.765,-0.012 -3.53,-0.024 -5.295,-0.035" style="fill:#fff;fill-rule:nonzero;"/><path d="M34.204,10.372l4.455,0.206l-3.022,17.925l-4.079,-1.993l2.646,-16.138Z" style="fill:#fff;fill-rule:nonzero;"/><path d="M97.346,9.55c0.029,-1.302 0.058,-2.604 0.087,-3.905c1.803,0.027 3.605,0.055 5.407,0.082c7.894,0.12 11.269,5.365 11.237,10.926c-0.08,3.568 -1.057,4.87 -4.953,4.566c1.49,3.194 2.979,6.388 4.468,9.582l-4.57,-0.069c-1.705,-3.504 -3.41,-7.008 -5.115,-10.511c0.14,-1.285 0.28,-2.57 0.421,-3.855c2.087,2.223 5.237,1.796 5.44,-1.479c-0.11,-3.342 -3.598,-5.264 -7.127,-5.302c-1.765,-0.011 -3.53,-0.023 -5.295,-0.035" style="fill:#fff;fill-rule:nonzero;"/><path d="M100.001,10.464l4.455,0.205l-3.023,17.925l-4.081,-1.993l2.649,-16.137Z" style="fill:#fff;fill-rule:nonzero;"/><path d="M49.987,5.144l-0.104,4.64l1.833,0.257l-0.08,3.538l-2.063,-0.031l0.47,3.959l0.727,0.012l-0.105,4.64l-2.231,-0.034l-0.092,4.043l13.351,3.788l0.706,-4.172l-7.035,-1.991l0.119,-5.283l6.311,1.934l0.082,-3.63l-5.644,-1.832l0.087,-3.905l7.089,2.038l0.104,-4.641l-13.525,-3.33Z" style="fill:#fff;fill-rule:nonzero;"/><path d="M66.461,6.314c1.452,0.695 2.904,1.392 4.357,2.088c-0.183,1.529 -0.367,3.058 -0.549,4.588c2.616,-1.492 4.734,-3.13 6.5,-6.473c1.23,0.661 2.682,1.373 3.912,2.035c-2.323,4.147 -5.293,7.365 -9.247,9.649c1.672,1.649 3.345,3.298 5.017,4.948c0.621,0.484 1.206,0.095 1.408,-0.622c0.501,0.007 1.003,0.015 1.505,0.023c1.36,1.445 0.577,4.053 -0.109,4.824c-0.806,1.151 -2.533,1.095 -3.518,0.268c-2.17,-1.81 -4.341,-3.62 -6.512,-5.43c-0.481,2.397 -1.075,4.885 -1.778,7.188c-1.061,-0.736 -2.122,-1.472 -3.183,-2.209c0.171,-2.678 0.343,-5.356 0.515,-8.034c-0.324,-0.48 -0.648,-0.96 -0.971,-1.44c0.625,-0.542 1.25,-1.084 1.876,-1.626l0.777,-9.777Z" style="fill:#fff;fill-rule:nonzero;"/><path d="M93.719,11.324c0.437,-1.28 0.874,-2.56 1.312,-3.84c-4.859,-0.38 -10.728,1.981 -13.081,6.603c-2.031,5.239 -1.819,9.868 0.828,12.789c3.273,3.206 7.088,2.099 10.22,-0.856c4.24,-4.317 3.444,-10.181 2.531,-13.382c-1.084,0.275 -2.169,0.55 -3.252,0.825c0.77,3.764 -0.72,8.874 -2.686,10.391c-2.547,1.692 -5.386,1.542 -5.767,-3.856c-0.026,-3.769 2.465,-8.005 9.895,-8.674" style="fill:#fff;fill-rule:nonzero;"/><path d="M116.241,5.75c-0.029,1.3 -0.059,2.601 -0.088,3.902c10.891,0.25 13.098,4.579 11.769,8.289c-1.137,2.583 -4.468,5.802 -7.87,6.605c0.323,-4.171 0.831,-8.338 1.153,-12.508c-1.183,-0.019 -2.553,-0.04 -3.736,-0.057c-0.537,4.475 -1.072,8.95 -1.607,13.425c-0.694,0.366 -1.511,0.679 -2.26,0.788l1.658,3.823c6.386,-0.638 16.777,-4.912 17.717,-12.564c0.487,-7.813 -4.783,-11.607 -13.562,-11.655c-1.058,-0.016 -2.116,-0.032 -3.174,-0.048" style="fill:#fff;fill-rule:nonzero;"/></g></svg>