<?xml version="1.0" encoding="UTF-8" standalone="no"?>
<!DOCTYPE svg PUBLIC "-//W3C//DTD SVG 1.1//EN" "http://www.w3.org/Graphics/SVG/1.1/DTD/svg11.dtd">
<svg width="100%" height="100%" viewBox="0 0 1536 1024" version="1.1" xmlns="http://www.w3.org/2000/svg" xmlns:xlink="http://www.w3.org/1999/xlink" xml:space="preserve" xmlns:serif="http://www.serif.com/" style="fill-rule:evenodd;clip-rule:evenodd;stroke-miterlimit:2;">
    <g transform="matrix(1,0,0,1,-6567.38,0)">
        <g>
            <g transform="matrix(0.798645,0,0,0.84535,7451.64,-4272.19)">
                <rect x="-786.655" y="5053.75" width="320.543" height="302.834" style="fill:rgb(237,237,237);stroke:rgb(237,237,237);stroke-width:1.22px;"/>
            </g>
            <g transform="matrix(0.798645,0,0,0.84535,8475.64,-4272.18)">
                <rect x="-786.655" y="5053.75" width="320.543" height="302.834" style="fill:rgb(237,237,237);stroke:rgb(237,237,237);stroke-width:1.22px;"/>
            </g>
            <g transform="matrix(0.798645,0,0,0.84535,8475.64,-4016.18)">
                <rect x="-786.655" y="5053.75" width="320.543" height="302.834" style="fill:rgb(237,237,237);stroke:rgb(237,237,237);stroke-width:1.22px;"/>
            </g>
            <g transform="matrix(0.798645,0,0,0.84535,7195.64,-3504.19)">
                <rect x="-786.655" y="5053.75" width="320.543" height="302.834" style="fill:rgb(237,237,237);stroke:rgb(237,237,237);stroke-width:1.22px;"/>
            </g>
        </g>
        <g>
            <g transform="matrix(0.798645,0,0,0.84535,8475.64,-3760.19)">
                <rect x="-786.655" y="5053.75" width="320.543" height="302.834" style="fill:rgb(217,217,217);stroke:rgb(217,217,217);stroke-width:1.22px;"/>
            </g>
            <g transform="matrix(0.798645,0,0,0.84535,8219.64,-4272.18)">
                <rect x="-786.655" y="5053.75" width="320.543" height="302.834" style="fill:rgb(217,217,217);stroke:rgb(217,217,217);stroke-width:1.22px;"/>
            </g>
        </g>
        <g>
            <g transform="matrix(0.798645,0,0,0.84535,7963.64,-4272.18)">
                <rect x="-786.655" y="5053.75" width="320.543" height="302.834" style="fill:white;stroke:white;stroke-width:1.22px;"/>
            </g>
            <g transform="matrix(0.798645,0,0,0.84535,7195.64,-4272.18)">
                <rect x="-786.655" y="5053.75" width="320.543" height="302.834" style="fill:white;stroke:white;stroke-width:1.22px;"/>
            </g>
            <g transform="matrix(0.798645,0,0,0.84535,7707.64,-4272.18)">
                <rect x="-786.655" y="5053.75" width="320.543" height="302.834" style="fill:white;stroke:white;stroke-width:1.22px;"/>
            </g>
        </g>
    </g>
</svg>
